ffmpeg started on 2016-12-09 at 00:06:08
Report written to "Output/x264/results/ffmpeg/crowd_run_2160p50veryslow12000k.log"
Command line:
Tools/ffmpeg/ffmpeg -benchmark -y -i Input/y4m/crowd_run_2160p50.y4m -c:v libx264 -preset veryslow -b:v 12000k -an Output/x264/encoded/crowd_run_2160p50veryslow12000k.mkv
ffmpeg version N-82227-gdb23fde Copyright (c) 2000-2016 the FFmpeg developers
  built with gcc 5.4.0 (Ubuntu 5.4.0-6ubuntu1~16.04.2) 20160609
  configuration: --prefix=/home/jaroslav/ffmpeg_build --pkg-config-flags=--static --extra-cflags=-I/home/jaroslav/ffmpeg_build/include --extra-ldflags=-L/home/jaroslav/ffmpeg_build/lib --bindir=/home/jaroslav/bin --enable-gpl --enable-libass --enable-libfdk-aac --enable-libfreetype --enable-libmp3lame --enable-libopus --enable-libtheora --enable-libvorbis --enable-libvpx --enable-libx264 --enable-libx265 --enable-nvenc --enable-libmfx --enable-libxvid --enable-libgsm --enable-libopencore-amrnb --enable-version3 --enable-nonfree
  libavutil      55. 35.100 / 55. 35.100
  libavcodec     57. 66.101 / 57. 66.101
  libavformat    57. 57.100 / 57. 57.100
  libavdevice    57.  2.100 / 57.  2.100
  libavfilter     6. 66.100 /  6. 66.100
  libswscale      4.  3.100 /  4.  3.100
  libswresample   2.  4.100 /  2.  4.100
  libpostproc    54.  2.100 / 54.  2.100
Input #0, yuv4mpegpipe, from 'Input/y4m/crowd_run_2160p50.y4m':
  Duration: 00:00:10.00, start: 0.000000, bitrate: 4976642 kb/s
    Stream #0:0: Video: rawvideo (I420 / 0x30323449), yuv420p(progressive), 3840x2160, SAR 1:1 DAR 16:9, 50 fps, 50 tbr, 50 tbn, 50 tbc
[libx264 @ 0x35be1c0] using SAR=1/1
[libx264 @ 0x35be1c0] DPB size (16 frames, 518400 mbs) > level limit (5 frames, 184320 mbs)
[libx264 @ 0x35be1c0] using cpu capabilities: MMX2 SSE2Fast SSSE3 SSE4.2 AVX FMA3 AVX2 LZCNT BMI2
[libx264 @ 0x35be1c0] profile High, level 5.2
[libx264 @ 0x35be1c0] 264 - core 148 - H.264/MPEG-4 AVC codec - Copyleft 2003-2016 - http://www.videolan.org/x264.html - options: cabac=1 ref=16 deblock=1:0:0 analyse=0x3:0x133 me=umh subme=10 psy=1 psy_rd=1.00:0.00 mixed_ref=1 me_range=24 chroma_me=1 trellis=2 8x8dct=1 cqm=0 deadzone=21,11 fast_pskip=1 chroma_qp_offset=-2 threads=6 lookahead_threads=1 sliced_threads=0 nr=0 decimate=1 interlaced=0 bluray_compat=0 constrained_intra=0 bframes=8 b_pyramid=2 b_adapt=2 b_bias=0 direct=3 weightb=1 open_gop=0 weightp=2 keyint=250 keyint_min=25 scenecut=40 intra_refresh=0 rc_lookahead=60 rc=abr mbtree=1 bitrate=12000 ratetol=1.0 qcomp=0.60 qpmin=0 qpmax=69 qpstep=4 ip_ratio=1.40 aq=1:1.00
Output #0, matroska, to 'Output/x264/encoded/crowd_run_2160p50veryslow12000k.mkv':
  Metadata:
    encoder         : Lavf57.57.100
    Stream #0:0: Video: h264 (libx264) (H264 / 0x34363248), yuv420p, 3840x2160 [SAR 1:1 DAR 16:9], q=-1--1, 12000 kb/s, 50 fps, 1k tbn, 50 tbc
    Metadata:
      encoder         : Lavc57.66.101 libx264
    Side data:
      cpb: bitrate max/min/avg: 0/0/12000000 buffer size: 0 vbv_delay: -1
Stream mapping:
  Stream #0:0 -> #0:0 (rawvideo (native) -> h264 (libx264))
Press [q] to stop, [?] for help
frame=   19 fps=0.0 q=0.0 size=       0kB time=00:00:00.00 bitrate=N/A speed=   0x    frame=   31 fps= 30 q=0.0 size=       0kB time=00:00:00.00 bitrate=N/A speed=   0x    frame=   42 fps= 26 q=0.0 size=       0kB time=00:00:00.00 bitrate=N/A speed=   0x    frame=   50 fps= 23 q=0.0 size=       0kB time=00:00:00.00 bitrate=N/A speed=   0x    frame=   58 fps= 21 q=0.0 size=       0kB time=00:00:00.00 bitrate=N/A speed=   0x    frame=   66 fps= 20 q=0.0 size=       0kB time=00:00:00.00 bitrate=N/A speed=   0x    frame=   72 fps=6.7 q=0.0 size=       0kB time=00:00:00.00 bitrate=N/A speed=   0x    frame=   77 fps=6.0 q=40.0 size=       1kB time=-00:00:00.01 bitrate=N/A speed=N/A    frame=   78 fps=5.5 q=36.0 size=       1kB time=00:00:00.00 bitrate=5888.0kbits/s speed=7.03e-05x    frame=   79 fps=5.3 q=34.0 size=       1kB time=00:00:00.02 bitrate= 280.4kbits/s speed=0.00141x    frame=   84 fps=5.0 q=46.0 size=       1kB time=00:00:00.12 bitrate=  48.7kbits/s speed=0.00714x    frame=   88 fps=5.0 q=49.0 size=       1kB time=00:00:00.20 bitrate=  29.3kbits/s speed=0.0114x    frame=   90 fps=4.8 q=48.0 size=       1kB time=00:00:00.24 bitrate=  24.4kbits/s speed=0.0128x    frame=   92 fps=4.5 q=48.0 size=       1kB time=00:00:00.28 bitrate=  21.0kbits/s speed=0.0137x    frame=   95 fps=4.4 q=48.0 size=       1kB time=00:00:00.34 bitrate=  17.3kbits/s speed=0.0158x    frame=   96 fps=4.3 q=47.0 size=       1kB time=00:00:00.36 bitrate=  16.3kbits/s speed=0.016x    frame=   98 fps=4.2 q=47.0 size=       1kB time=00:00:00.40 bitrate=  14.7kbits/s speed=0.0173x    frame=   99 fps=4.0 q=47.0 size=       1kB time=00:00:00.42 bitrate=  14.0kbits/s speed=0.0169x    frame=  100 fps=3.9 q=47.0 size=       1kB time=00:00:00.44 bitrate=  13.4kbits/s speed=0.0171x    frame=  101 fps=3.8 q=46.0 size=       1kB time=00:00:00.46 bitrate=  12.8kbits/s speed=0.0174x    frame=  103 fps=3.7 q=47.0 size=       1kB time=00:00:00.50 bitrate=  11.8kbits/s speed=0.0182x    frame=  104 fps=3.7 q=47.0 size=       1kB time=00:00:00.52 bitrate=  11.3kbits/s speed=0.0185x    frame=  105 fps=3.6 q=46.0 size=       1kB time=00:00:00.54 bitrate=  10.9kbits/s speed=0.0187x    frame=  107 fps=3.4 q=46.0 size=       1kB time=00:00:00.58 bitrate=  10.1kbits/s speed=0.0182x    frame=  108 fps=3.3 q=46.0 size=       1kB time=00:00:00.60 bitrate=   9.8kbits/s speed=0.0184x    frame=  111 fps=3.3 q=46.0 size=       1kB time=00:00:00.66 bitrate=   8.9kbits/s speed=0.0194x    frame=  112 fps=3.2 q=46.0 size=       1kB time=00:00:00.68 bitrate=   8.6kbits/s speed=0.0196x    frame=  113 fps=3.2 q=46.0 size=       1kB time=00:00:00.70 bitrate=   8.4kbits/s speed=0.0197x    frame=  114 fps=3.2 q=46.0 size=       1kB time=00:00:00.72 bitrate=   8.2kbits/s speed=0.02x    frame=  115 fps=3.0 q=46.0 size=       1kB time=00:00:00.74 bitrate=   7.9kbits/s speed=0.0192x    frame=  116 fps=3.0 q=46.0 size=       1kB time=00:00:00.76 bitrate=   7.7kbits/s speed=0.0194x    frame=  119 fps=3.0 q=46.0 size=       1kB time=00:00:00.82 bitrate=   7.2kbits/s speed=0.0207x    frame=  120 fps=2.9 q=46.0 size=       1kB time=00:00:00.84 bitrate=   7.0kbits/s speed=0.0204x    frame=  121 fps=2.8 q=46.0 size=       1kB time=00:00:00.86 bitrate=   6.8kbits/s speed=0.02x    frame=  122 fps=2.8 q=45.0 size=       1kB time=00:00:00.88 bitrate=   6.7kbits/s speed=0.0201x    frame=  124 fps=2.8 q=46.0 size=       1kB time=00:00:00.92 bitrate=   6.4kbits/s speed=0.0205x    frame=  125 fps=2.7 q=46.0 size=       1kB time=00:00:00.94 bitrate=   6.3kbits/s speed=0.0206x    frame=  126 fps=2.7 q=46.0 size=       1kB time=00:00:00.96 bitrate=   6.1kbits/s speed=0.0208x    frame=  127 fps=2.7 q=45.0 size=       1kB time=00:00:00.98 bitrate=   6.0kbits/s speed=0.0209x    frame=  128 fps=2.6 q=45.0 size=       1kB time=00:00:01.00 bitrate=   5.9kbits/s speed=0.0202x    frame=  129 fps=2.6 q=45.0 size=       1kB time=00:00:01.02 bitrate=   5.8kbits/s speed=0.0203x    frame=  130 fps=2.6 q=45.0 size=       1kB time=00:00:01.04 bitrate=   5.7kbits/s speed=0.0204x    frame=  134 fps=2.5 q=45.0 size=       1kB time=00:00:01.12 bitrate=   5.3kbits/s speed=0.0206x    frame=  135 fps=2.5 q=45.0 size=       1kB time=00:00:01.14 bitrate=   5.2kbits/s speed=0.0207x    frame=  137 fps=2.5 q=45.0 size=       1kB time=00:00:01.18 bitrate=   5.0kbits/s speed=0.0212x    frame=  138 fps=2.4 q=45.0 size=       1kB time=00:00:01.20 bitrate=   4.9kbits/s speed=0.0212x    frame=  139 fps=2.4 q=45.0 size=       1kB time=00:00:01.22 bitrate=   4.8kbits/s speed=0.0213x    frame=  140 fps=2.4 q=45.0 size=       1kB time=00:00:01.24 bitrate=   4.7kbits/s speed=0.0212x    frame=  141 fps=2.3 q=45.0 size=       1kB time=00:00:01.26 bitrate=   4.7kbits/s speed=0.021x    frame=  142 fps=2.3 q=45.0 size=       1kB time=00:00:01.28 bitrate=   4.6kbits/s speed=0.0209x    frame=  143 fps=2.3 q=45.0 size=       1kB time=00:00:01.30 bitrate=   4.5kbits/s speed=0.021x    frame=  145 fps=2.3 q=45.0 size=       1kB time=00:00:01.34 bitrate=   4.4kbits/s speed=0.0212x    frame=  146 fps=2.3 q=45.0 size=       1kB time=00:00:01.36 bitrate=   4.3kbits/s speed=0.0212x    frame=  147 fps=2.3 q=45.0 size=       1kB time=00:00:01.38 bitrate=   4.3kbits/s speed=0.0213x    frame=  148 fps=2.3 q=45.0 size=       1kB time=00:00:01.40 bitrate=   4.2kbits/s speed=0.0213x    frame=  149 fps=2.2 q=45.0 size=       1kB time=00:00:01.42 bitrate=   4.1kbits/s speed=0.0212x    frame=  150 fps=2.2 q=45.0 size=       1kB time=00:00:01.44 bitrate=   4.1kbits/s speed=0.021x    frame=  151 fps=2.2 q=45.0 size=       1kB time=00:00:01.46 bitrate=   4.0kbits/s speed=0.0211x    frame=  152 fps=2.2 q=45.0 size=       1kB time=00:00:01.48 bitrate=   4.0kbits/s speed=0.0212x    frame=  155 fps=2.2 q=44.0 size=       1kB time=00:00:01.54 bitrate=   3.8kbits/s speed=0.0217x    frame=  156 fps=2.1 q=45.0 size=       1kB time=00:00:01.56 bitrate=   3.8kbits/s speed=0.0212x    frame=  157 fps=2.1 q=44.0 size=       1kB time=00:00:01.58 bitrate=   3.7kbits/s speed=0.0212x    frame=  158 fps=2.1 q=44.0 size=       1kB time=00:00:01.60 bitrate=   3.7kbits/s speed=0.0213x    frame=  160 fps=2.1 q=44.0 size=       1kB time=00:00:01.64 bitrate=   3.6kbits/s speed=0.0216x    frame=  161 fps=2.1 q=44.0 size=       1kB time=00:00:01.66 bitrate=   3.5kbits/s speed=0.0216x    frame=  162 fps=2.1 q=44.0 size=       1kB time=00:00:01.68 bitrate=   3.5kbits/s speed=0.0217x    frame=  163 fps=2.1 q=44.0 size=       1kB time=00:00:01.70 bitrate=   3.5kbits/s speed=0.0217x    frame=  164 fps=2.0 q=44.0 size=       1kB time=00:00:01.72 bitrate=   3.4kbits/s speed=0.0213x    frame=  165 fps=2.0 q=44.0 size=       1kB time=00:00:01.74 bitrate=   3.4kbits/s speed=0.0214x    frame=  167 fps=2.0 q=44.0 size=       1kB time=00:00:01.78 bitrate=   3.3kbits/s speed=0.0217x    frame=  168 fps=2.0 q=44.0 size=       1kB time=00:00:01.80 bitrate=   3.3kbits/s speed=0.0217x    frame=  169 fps=2.0 q=44.0 size=       1kB time=00:00:01.82 bitrate=   3.2kbits/s speed=0.0218x    frame=  170 fps=2.0 q=44.0 size=       1kB time=00:00:01.84 bitrate=   3.2kbits/s speed=0.0218x    frame=  172 fps=2.0 q=44.0 size=       1kB time=00:00:01.88 bitrate=   3.1kbits/s speed=0.0213x    frame=  173 fps=1.9 q=44.0 size=       1kB time=00:00:01.90 bitrate=   3.1kbits/s speed=0.0214x    frame=  175 fps=2.0 q=44.0 size=       1kB time=00:00:01.94 bitrate=   3.0kbits/s speed=0.0217x    frame=  178 fps=1.9 q=44.0 size=       1kB time=00:00:02.00 bitrate=   2.9kbits/s speed=0.0215x    frame=  179 fps=1.9 q=44.0 size=       1kB time=00:00:02.02 bitrate=   2.9kbits/s speed=0.0215x    frame=  182 fps=1.9 q=44.0 size=       1kB time=00:00:02.08 bitrate=   2.8kbits/s speed=0.0218x    frame=  183 fps=1.9 q=44.0 size=       1kB time=00:00:02.10 bitrate=   2.8kbits/s speed=0.0218x    frame=  184 fps=1.9 q=44.0 size=       1kB time=00:00:02.12 bitrate=   2.8kbits/s speed=0.0218x    frame=  186 fps=1.9 q=44.0 size=       1kB time=00:00:02.16 bitrate=   2.7kbits/s speed=0.0216x    frame=  187 fps=1.9 q=44.0 size=       1kB time=00:00:02.18 bitrate=   2.7kbits/s speed=0.0216x    frame=  188 fps=1.9 q=44.0 size=       1kB time=00:00:02.20 bitrate=   2.7kbits/s speed=0.0217x    frame=  191 fps=1.8 q=44.0 size=       1kB time=00:00:02.26 bitrate=   2.6kbits/s speed=0.0218x    frame=  192 fps=1.8 q=44.0 size=       1kB time=00:00:02.28 bitrate=   2.6kbits/s speed=0.0216x    frame=  193 fps=1.8 q=44.0 size=       1kB time=00:00:02.30 bitrate=   2.6kbits/s speed=0.0216x    frame=  196 fps=1.8 q=44.0 size=       1kB time=00:00:02.36 bitrate=   2.5kbits/s speed=0.0218x    frame=  197 fps=1.8 q=44.0 size=       1kB time=00:00:02.38 bitrate=   2.5kbits/s speed=0.0218x    frame=  198 fps=1.8 q=44.0 size=       1kB time=00:00:02.40 bitrate=   2.5kbits/s speed=0.0219x    frame=  199 fps=1.8 q=44.0 size=       1kB time=00:00:02.42 bitrate=   2.4kbits/s speed=0.0219x    frame=  200 fps=1.8 q=44.0 size=       1kB time=00:00:02.44 bitrate=   2.4kbits/s speed=0.0219x    frame=  201 fps=1.8 q=44.0 size=       1kB time=00:00:02.46 bitrate=   2.4kbits/s speed=0.0218x    frame=  202 fps=1.8 q=44.0 size=       1kB time=00:00:02.48 bitrate=   2.4kbits/s speed=0.0218x    frame=  203 fps=1.8 q=44.0 size=       1kB time=00:00:02.50 bitrate=   2.4kbits/s speed=0.0219x    frame=  205 fps=1.8 q=44.0 size=       1kB time=00:00:02.54 bitrate=   2.3kbits/s speed=0.0217x    frame=  206 fps=1.8 q=44.0 size=       1kB time=00:00:02.56 bitrate=   2.3kbits/s speed=0.0218x    frame=  207 fps=1.8 q=44.0 size=       1kB time=00:00:02.58 bitrate=   2.3kbits/s speed=0.0218x    frame=  209 fps=1.8 q=44.0 size=       1kB time=00:00:02.62 bitrate=   2.2kbits/s speed=0.0221x    frame=  210 fps=1.7 q=44.0 size=       1kB time=00:00:02.64 bitrate=   2.2kbits/s speed=0.0218x    frame=  211 fps=1.7 q=44.0 size=       1kB time=00:00:02.66 bitrate=   2.2kbits/s speed=0.0218x    frame=  213 fps=1.7 q=43.0 size=       1kB time=00:00:02.70 bitrate=   2.2kbits/s speed=0.022x    frame=  214 fps=1.7 q=44.0 size=       1kB time=00:00:02.72 bitrate=   2.2kbits/s speed=0.0218x    frame=  215 fps=1.7 q=44.0 size=       1kB time=00:00:02.74 bitrate=   2.1kbits/s speed=0.0218x    frame=  216 fps=1.7 q=43.0 size=       1kB time=00:00:02.76 bitrate=   2.1kbits/s speed=0.0218x    frame=  219 fps=1.7 q=43.0 size=       1kB time=00:00:02.82 bitrate=   2.1kbits/s speed=0.0218x    frame=  220 fps=1.7 q=43.0 size=       1kB time=00:00:02.84 bitrate=   2.1kbits/s speed=0.0217x    frame=  221 fps=1.7 q=43.0 size=       1kB time=00:00:02.86 bitrate=   2.1kbits/s speed=0.0218x    frame=  224 fps=1.7 q=43.0 size=       1kB time=00:00:02.92 bitrate=   2.0kbits/s speed=0.0219x    frame=  225 fps=1.7 q=43.0 size=       1kB time=00:00:02.94 bitrate=   2.0kbits/s speed=0.0218x    frame=  226 fps=1.7 q=43.0 size=       1kB time=00:00:02.96 bitrate=   2.0kbits/s speed=0.0218x    frame=  227 fps=1.7 q=43.0 size=       1kB time=00:00:02.98 bitrate=   2.0kbits/s speed=0.0218x    frame=  229 fps=1.7 q=43.0 size=       1kB time=00:00:03.02 bitrate=   1.9kbits/s speed=0.0219x    frame=  230 fps=1.6 q=43.0 size=       1kB time=00:00:03.04 bitrate=   1.9kbits/s speed=0.0218x    frame=  231 fps=1.6 q=43.0 size=       1kB time=00:00:03.06 bitrate=   1.9kbits/s speed=0.0218x    frame=  234 fps=1.6 q=43.0 size=       1kB time=00:00:03.12 bitrate=   1.9kbits/s speed=0.0218x    frame=  235 fps=1.6 q=43.0 size=       1kB time=00:00:03.14 bitrate=   1.9kbits/s speed=0.0218x    frame=  236 fps=1.6 q=43.0 size=       1kB time=00:00:03.16 bitrate=   1.9kbits/s speed=0.0218x    frame=  239 fps=1.6 q=43.0 size=       1kB time=00:00:03.22 bitrate=   1.8kbits/s speed=0.0219x    frame=  240 fps=1.6 q=43.0 size=       1kB time=00:00:03.24 bitrate=   1.8kbits/s speed=0.0217x    frame=  242 fps=1.6 q=43.0 size=       1kB time=00:00:03.28 bitrate=   1.8kbits/s speed=0.0219x    frame=  245 fps=1.6 q=43.0 size=    5165kB time=00:00:03.34 bitrate=12665.5kbits/s speed=0.0218x    frame=  246 fps=1.6 q=43.0 size=    5165kB time=00:00:03.36 bitrate=12590.1kbits/s speed=0.0217x    frame=  247 fps=1.6 q=43.0 size=    5165kB time=00:00:03.38 bitrate=12515.6kbits/s speed=0.0218x    frame=  250 fps=1.6 q=43.0 size=    5165kB time=00:00:03.44 bitrate=12297.4kbits/s speed=0.0218x    frame=  251 fps=1.6 q=43.0 size=    5165kB time=00:00:03.46 bitrate=12226.3kbits/s speed=0.0217x    frame=  252 fps=1.6 q=43.0 size=    5165kB time=00:00:03.48 bitrate=12156.1kbits/s speed=0.0218x    frame=  256 fps=1.6 q=43.0 size=    5165kB time=00:00:03.56 bitrate=11883.0kbits/s speed=0.0218x    frame=  257 fps=1.6 q=43.0 size=    5165kB time=00:00:03.58 bitrate=11816.6kbits/s speed=0.0218x    frame=  258 fps=1.6 q=43.0 size=    5165kB time=00:00:03.60 bitrate=11751.0kbits/s speed=0.0218x    frame=  260 fps=1.6 q=43.0 size=    5165kB time=00:00:03.64 bitrate=11621.9kbits/s speed=0.0219x    frame=  261 fps=1.6 q=43.0 size=    5165kB time=00:00:03.66 bitrate=11558.4kbits/s speed=0.0219x    frame=  263 fps=1.6 q=43.0 size=    5165kB time=00:00:03.70 bitrate=11433.5kbits/s speed=0.022x    frame=  264 fps=1.5 q=43.0 size=    5165kB time=00:00:03.72 bitrate=11372.0kbits/s speed=0.0218x    frame=  265 fps=1.5 q=43.0 size=    5165kB time=00:00:03.74 bitrate=11311.2kbits/s speed=0.0218x    frame=  266 fps=1.5 q=43.0 size=    5165kB time=00:00:03.76 bitrate=11251.1kbits/s speed=0.0218x    frame=  268 fps=1.5 q=43.0 size=    5165kB time=00:00:03.80 bitrate=11132.7kbits/s speed=0.0218x    frame=  269 fps=1.5 q=43.0 size=    5165kB time=00:00:03.82 bitrate=11074.4kbits/s speed=0.0219x    frame=  270 fps=1.5 q=43.0 size=    5165kB time=00:00:03.84 bitrate=11016.7kbits/s speed=0.0219x    frame=  272 fps=1.5 q=43.0 size=    5165kB time=00:00:03.88 bitrate=10903.2kbits/s speed=0.0219x    frame=  273 fps=1.5 q=43.0 size=    5165kB time=00:00:03.90 bitrate=10847.3kbits/s speed=0.0218x    frame=  274 fps=1.5 q=43.0 size=    5165kB time=00:00:03.92 bitrate=10792.0kbits/s speed=0.0218x    frame=  276 fps=1.5 q=43.0 size=    5165kB time=00:00:03.96 bitrate=10683.0kbits/s speed=0.0219x    frame=  277 fps=1.5 q=43.0 size=    5165kB time=00:00:03.98 bitrate=10629.3kbits/s speed=0.0219x    frame=  278 fps=1.5 q=43.0 size=    5165kB time=00:00:04.00 bitrate=10576.2kbits/s speed=0.0219x    frame=  279 fps=1.5 q=43.0 size=    5165kB time=00:00:04.02 bitrate=10523.6kbits/s speed=0.0219x    frame=  280 fps=1.5 q=43.0 size=    5165kB time=00:00:04.04 bitrate=10471.5kbits/s speed=0.0219x    frame=  281 fps=1.5 q=43.0 size=    5165kB time=00:00:04.06 bitrate=10419.9kbits/s speed=0.0219x    frame=  282 fps=1.5 q=43.0 size=    5165kB time=00:00:04.08 bitrate=10368.9kbits/s speed=0.0218x    frame=  283 fps=1.5 q=43.0 size=    5165kB time=00:00:04.10 bitrate=10318.3kbits/s speed=0.0218x    frame=  285 fps=1.5 q=43.0 size=    5165kB time=00:00:04.14 bitrate=10218.6kbits/s speed=0.0219x    frame=  286 fps=1.5 q=43.0 size=    5165kB time=00:00:04.16 bitrate=10169.5kbits/s speed=0.0219x    frame=  287 fps=1.5 q=43.0 size=    5165kB time=00:00:04.18 bitrate=10120.9kbits/s speed=0.0219x    frame=  289 fps=1.5 q=43.0 size=    5165kB time=00:00:04.22 bitrate=10025.0kbits/s speed=0.0219x    frame=  290 fps=1.5 q=43.0 size=    5165kB time=00:00:04.24 bitrate=9977.7kbits/s speed=0.0218x    frame=  291 fps=1.5 q=43.0 size=    5165kB time=00:00:04.26 bitrate=9930.8kbits/s speed=0.0218x    frame=  292 fps=1.5 q=43.0 size=    5165kB time=00:00:04.28 bitrate=9884.4kbits/s speed=0.0218x    frame=  294 fps=1.5 q=43.0 size=    5165kB time=00:00:04.32 bitrate=9792.9kbits/s speed=0.0218x    frame=  295 fps=1.5 q=43.0 size=    5165kB time=00:00:04.34 bitrate=9747.8kbits/s speed=0.0218x    frame=  296 fps=1.5 q=43.0 size=    5165kB time=00:00:04.36 bitrate=9703.1kbits/s speed=0.0218x    frame=  299 fps=1.5 q=43.0 size=    5165kB time=00:00:04.42 bitrate=9571.4kbits/s speed=0.0218x    frame=  300 fps=1.5 q=43.0 size=    5165kB time=00:00:04.44 bitrate=9528.3kbits/s speed=0.0218x    frame=  301 fps=1.5 q=43.0 size=    5165kB time=00:00:04.46 bitrate=9485.6kbits/s speed=0.0218x    frame=  303 fps=1.5 q=43.0 size=    5165kB time=00:00:04.50 bitrate=9401.3kbits/s speed=0.0218x    frame=  304 fps=1.5 q=43.0 size=    5165kB time=00:00:04.52 bitrate=9359.7kbits/s speed=0.0218x    frame=  305 fps=1.5 q=43.0 size=    5165kB time=00:00:04.54 bitrate=9318.5kbits/s speed=0.0218x    frame=  307 fps=1.5 q=43.0 size=    5165kB time=00:00:04.58 bitrate=9237.1kbits/s speed=0.0218x    frame=  308 fps=1.5 q=43.0 size=    5165kB time=00:00:04.60 bitrate=9197.0kbits/s speed=0.0218x    frame=  309 fps=1.5 q=43.0 size=    5165kB time=00:00:04.62 bitrate=9157.2kbits/s speed=0.0218x    frame=  311 fps=1.5 q=43.0 size=    5165kB time=00:00:04.66 bitrate=9078.6kbits/s speed=0.0218x    frame=  312 fps=1.5 q=43.0 size=    5165kB time=00:00:04.68 bitrate=9039.8kbits/s speed=0.0218x    frame=  313 fps=1.5 q=43.0 size=    5165kB time=00:00:04.70 bitrate=9001.3kbits/s speed=0.0218x    frame=  314 fps=1.5 q=43.0 size=    5165kB time=00:00:04.72 bitrate=8963.2kbits/s speed=0.0218x    frame=  315 fps=1.4 q=43.0 size=    5165kB time=00:00:04.74 bitrate=8925.4kbits/s speed=0.0218x    frame=  316 fps=1.4 q=43.0 size=    5165kB time=00:00:04.76 bitrate=8887.9kbits/s speed=0.0218x    frame=  319 fps=1.4 q=43.0 size=    5165kB time=00:00:04.82 bitrate=8777.3kbits/s speed=0.0217x    frame=  320 fps=1.4 q=43.0 size=    5165kB time=00:00:04.84 bitrate=8741.0kbits/s speed=0.0217x    frame=  322 fps=1.4 q=43.0 size=    5165kB time=00:00:04.88 bitrate=8669.4kbits/s speed=0.0218x    frame=  325 fps=1.4 q=43.0 size=    5165kB time=00:00:04.94 bitrate=8564.1kbits/s speed=0.0219x    frame=  328 fps=1.4 q=43.0 size=    7424kB time=00:00:05.00 bitrate=12160.4kbits/s speed=0.0221x    frame=  332 fps=1.5 q=43.0 size=    7424kB time=00:00:05.08 bitrate=11968.9kbits/s speed=0.0223x    frame=  336 fps=1.5 q=43.0 size=    7424kB time=00:00:05.16 bitrate=11783.4kbits/s speed=0.0225x    frame=  338 fps=1.5 q=43.0 size=    7424kB time=00:00:05.20 bitrate=11692.8kbits/s speed=0.0226x    frame=  340 fps=1.5 q=43.0 size=    7424kB time=00:00:05.24 bitrate=11603.5kbits/s speed=0.0227x    frame=  341 fps=1.5 q=43.0 size=    7424kB time=00:00:05.26 bitrate=11559.4kbits/s speed=0.0227x    frame=  342 fps=1.5 q=43.0 size=    7424kB time=00:00:05.28 bitrate=11515.6kbits/s speed=0.0227x    frame=  345 fps=1.5 q=43.0 size=    7424kB time=00:00:05.34 bitrate=11386.3kbits/s speed=0.0227x    frame=  347 fps=1.5 q=43.0 size=    7424kB time=00:00:05.38 bitrate=11301.6kbits/s speed=0.0228x    frame=  349 fps=1.5 q=43.0 size=    7424kB time=00:00:05.42 bitrate=11218.2kbits/s speed=0.0228x    frame=  350 fps=1.5 q=43.0 size=    7424kB time=00:00:05.44 bitrate=11177.0kbits/s speed=0.0228x    frame=  353 fps=1.5 q=43.0 size=    7424kB time=00:00:05.50 bitrate=11055.1kbits/s speed=0.0228x    frame=  354 fps=1.5 q=43.0 size=    7424kB time=00:00:05.52 bitrate=11015.0kbits/s speed=0.0228x    frame=  355 fps=1.5 q=43.0 size=    7424kB time=00:00:05.54 bitrate=10975.3kbits/s speed=0.0228x    frame=  357 fps=1.5 q=43.0 size=    7424kB time=00:00:05.58 bitrate=10896.6kbits/s speed=0.0228x    frame=  358 fps=1.5 q=43.0 size=    7424kB time=00:00:05.60 bitrate=10857.7kbits/s speed=0.0227x    frame=  359 fps=1.5 q=43.0 size=    7424kB time=00:00:05.62 bitrate=10819.1kbits/s speed=0.0228x    frame=  361 fps=1.4 q=43.0 size=    7424kB time=00:00:05.66 bitrate=10742.6kbits/s speed=0.0227x    frame=  362 fps=1.5 q=43.0 size=    7424kB time=00:00:05.68 bitrate=10704.8kbits/s speed=0.0228x    frame=  363 fps=1.5 q=43.0 size=    7424kB time=00:00:05.70 bitrate=10667.3kbits/s speed=0.0228x    frame=  365 fps=1.4 q=43.0 size=    7424kB time=00:00:05.74 bitrate=10592.9kbits/s speed=0.0227x    frame=  366 fps=1.4 q=43.0 size=    7424kB time=00:00:05.76 bitrate=10556.2kbits/s speed=0.0227x    frame=  367 fps=1.4 q=43.0 size=    7424kB time=00:00:05.78 bitrate=10519.6kbits/s speed=0.0227x    frame=  369 fps=1.4 q=43.0 size=    7424kB time=00:00:05.82 bitrate=10447.3kbits/s speed=0.0227x    frame=  370 fps=1.4 q=43.0 size=    7424kB time=00:00:05.84 bitrate=10411.6kbits/s speed=0.0227x    frame=  372 fps=1.4 q=43.0 size=    7424kB time=00:00:05.88 bitrate=10340.8kbits/s speed=0.0228x    frame=  373 fps=1.4 q=43.0 size=    7424kB time=00:00:05.90 bitrate=10305.7kbits/s speed=0.0226x    frame=  374 fps=1.4 q=43.0 size=    7424kB time=00:00:05.92 bitrate=10270.9kbits/s speed=0.0227x    frame=  375 fps=1.4 q=43.0 size=    7424kB time=00:00:05.94 bitrate=10236.3kbits/s speed=0.0227x    frame=  378 fps=1.4 q=43.0 size=    7424kB time=00:00:06.00 bitrate=10134.0kbits/s speed=0.0228x    frame=  379 fps=1.4 q=43.0 size=    7424kB time=00:00:06.02 bitrate=10100.3kbits/s speed=0.0227x    frame=  380 fps=1.4 q=43.0 size=    7424kB time=00:00:06.04 bitrate=10066.9kbits/s speed=0.0227x    frame=  382 fps=1.4 q=43.0 size=    7424kB time=00:00:06.08 bitrate=10000.7kbits/s speed=0.0227x    frame=  383 fps=1.4 q=43.0 size=    7424kB time=00:00:06.10 bitrate=9967.9kbits/s speed=0.0227x    frame=  384 fps=1.4 q=43.0 size=    7424kB time=00:00:06.12 bitrate=9935.3kbits/s speed=0.0227x    frame=  386 fps=1.4 q=43.0 size=    7424kB time=00:00:06.16 bitrate=9870.8kbits/s speed=0.0226x    frame=  387 fps=1.4 q=43.0 size=    7424kB time=00:00:06.18 bitrate=9838.9kbits/s speed=0.0226x    frame=  388 fps=1.4 q=43.0 size=    7424kB time=00:00:06.20 bitrate=9807.1kbits/s speed=0.0227x    frame=  390 fps=1.4 q=43.0 size=    7424kB time=00:00:06.24 bitrate=9744.3kbits/s speed=0.0227x    frame=  391 fps=1.4 q=43.0 size=    7424kB time=00:00:06.26 bitrate=9713.1kbits/s speed=0.0227x    frame=  393 fps=1.4 q=43.0 size=    7424kB time=00:00:06.30 bitrate=9651.5kbits/s speed=0.0227x    frame=  394 fps=1.4 q=43.0 size=    7424kB time=00:00:06.32 bitrate=9620.9kbits/s speed=0.0226x    frame=  395 fps=1.4 q=43.0 size=    7424kB time=00:00:06.34 bitrate=9590.6kbits/s speed=0.0226x    frame=  397 fps=1.4 q=43.0 size=    7424kB time=00:00:06.38 bitrate=9530.5kbits/s speed=0.0227x    frame=  398 fps=1.4 q=43.0 size=    7424kB time=00:00:06.40 bitrate=9500.7kbits/s speed=0.0227x    frame=  399 fps=1.4 q=43.0 size=    7424kB time=00:00:06.42 bitrate=9471.1kbits/s speed=0.0227x    frame=  400 fps=1.4 q=43.0 size=    7424kB time=00:00:06.44 bitrate=9441.7kbits/s speed=0.0227x    frame=  402 fps=1.4 q=43.0 size=    7424kB time=00:00:06.48 bitrate=9383.4kbits/s speed=0.0225x    frame=  403 fps=1.4 q=43.0 size=    7424kB time=00:00:06.50 bitrate=9354.6kbits/s speed=0.0226x    frame=  404 fps=1.4 q=43.0 size=    7424kB time=00:00:06.52 bitrate=9325.9kbits/s speed=0.0226x    frame=  407 fps=1.4 q=43.0 size=    7424kB time=00:00:06.58 bitrate=9240.8kbits/s speed=0.0227x    frame=  408 fps=1.4 q=43.0 size=    7424kB time=00:00:06.60 bitrate=9212.9kbits/s speed=0.0226x    frame=  410 fps=1.4 q=43.0 size=    7424kB time=00:00:06.64 bitrate=9157.4kbits/s speed=0.0227x    frame=  411 fps=1.4 q=43.0 size=    7424kB time=00:00:06.66 bitrate=9129.9kbits/s speed=0.0226x    frame=  412 fps=1.4 q=43.0 size=    7424kB time=00:00:06.68 bitrate=9102.5kbits/s speed=0.0226x    frame=  414 fps=1.4 q=43.0 size=    7424kB time=00:00:06.72 bitrate=9048.4kbits/s speed=0.0227x    frame=  415 fps=1.4 q=43.0 size=    7424kB time=00:00:06.74 bitrate=9021.5kbits/s speed=0.0225x    frame=  416 fps=1.4 q=43.0 size=    7424kB time=00:00:06.76 bitrate=8994.8kbits/s speed=0.0225x    frame=  418 fps=1.4 q=43.0 size=    7424kB time=00:00:06.80 bitrate=8941.9kbits/s speed=0.0226x    frame=  420 fps=1.4 q=43.0 size=    7424kB time=00:00:06.84 bitrate=8889.6kbits/s speed=0.0227x    frame=  421 fps=1.4 q=43.0 size=    7424kB time=00:00:06.86 bitrate=8863.7kbits/s speed=0.0225x    frame=  423 fps=1.4 q=43.0 size=    7424kB time=00:00:06.90 bitrate=8812.3kbits/s speed=0.0226x    frame=  424 fps=1.4 q=43.0 size=    7424kB time=00:00:06.92 bitrate=8786.9kbits/s speed=0.0225x    frame=  425 fps=1.4 q=43.0 size=    7424kB time=00:00:06.94 bitrate=8761.6kbits/s speed=0.0225x    frame=  427 fps=1.4 q=43.0 size=    7424kB time=00:00:06.98 bitrate=8711.4kbits/s speed=0.0226x    frame=  428 fps=1.4 q=43.0 size=    7424kB time=00:00:07.00 bitrate=8686.5kbits/s speed=0.0225x    frame=  429 fps=1.4 q=43.0 size=    7424kB time=00:00:07.02 bitrate=8661.7kbits/s speed=0.0225x    frame=  430 fps=1.4 q=43.0 size=    7424kB time=00:00:07.04 bitrate=8637.1kbits/s speed=0.0225x    frame=  432 fps=1.4 q=43.0 size=    7424kB time=00:00:07.08 bitrate=8588.3kbits/s speed=0.0226x    frame=  433 fps=1.4 q=43.0 size=    7424kB time=00:00:07.10 bitrate=8564.1kbits/s speed=0.0225x    frame=  434 fps=1.4 q=43.0 size=    7424kB time=00:00:07.12 bitrate=8540.1kbits/s speed=0.0225x    frame=  435 fps=1.4 q=43.0 size=    7424kB time=00:00:07.14 bitrate=8516.2kbits/s speed=0.0225x    frame=  437 fps=1.4 q=43.0 size=    7424kB time=00:00:07.18 bitrate=8468.7kbits/s speed=0.0225x    frame=  438 fps=1.4 q=43.0 size=    7424kB time=00:00:07.20 bitrate=8445.2kbits/s speed=0.0225x    frame=  439 fps=1.4 q=43.0 size=    7424kB time=00:00:07.22 bitrate=8421.8kbits/s speed=0.0225x    frame=  440 fps=1.4 q=43.0 size=    7424kB time=00:00:07.24 bitrate=8398.6kbits/s speed=0.0225x    frame=  441 fps=1.4 q=43.0 size=    7424kB time=00:00:07.26 bitrate=8375.4kbits/s speed=0.0224x    frame=  442 fps=1.4 q=43.0 size=    7424kB time=00:00:07.28 bitrate=8352.4kbits/s speed=0.0225x    frame=  443 fps=1.4 q=43.0 size=    7424kB time=00:00:07.30 bitrate=8329.5kbits/s speed=0.0225x    frame=  445 fps=1.4 q=43.0 size=    7424kB time=00:00:07.34 bitrate=8284.2kbits/s speed=0.0225x    frame=  446 fps=1.4 q=43.0 size=    7424kB time=00:00:07.36 bitrate=8261.7kbits/s speed=0.0225x    frame=  447 fps=1.4 q=43.0 size=    7424kB time=00:00:07.38 bitrate=8239.3kbits/s speed=0.0225x    frame=  449 fps=1.4 q=43.0 size=    7424kB time=00:00:07.42 bitrate=8194.9kbits/s speed=0.0224x    frame=  450 fps=1.4 q=43.0 size=    7424kB time=00:00:07.44 bitrate=8172.8kbits/s speed=0.0225x    frame=  451 fps=1.4 q=43.0 size=    7424kB time=00:00:07.46 bitrate=8150.9kbits/s speed=0.0225x    frame=  453 fps=1.4 q=43.0 size=    7424kB time=00:00:07.50 bitrate=8107.5kbits/s speed=0.0225x    frame=  454 fps=1.4 q=43.0 size=    7424kB time=00:00:07.52 bitrate=8085.9kbits/s speed=0.0225x    frame=  455 fps=1.4 q=43.0 size=    7424kB time=00:00:07.54 bitrate=8064.5kbits/s speed=0.0225x    frame=  457 fps=1.4 q=43.0 size=    7424kB time=00:00:07.58 bitrate=8021.9kbits/s speed=0.0225x    frame=  458 fps=1.4 q=43.0 size=    7424kB time=00:00:07.60 bitrate=8000.8kbits/s speed=0.0225x    frame=  459 fps=1.4 q=43.0 size=    7424kB time=00:00:07.62 bitrate=7979.8kbits/s speed=0.0225x    frame=  461 fps=1.4 q=43.0 size=    7424kB time=00:00:07.66 bitrate=7938.1kbits/s speed=0.0224x    frame=  462 fps=1.4 q=43.0 size=    7424kB time=00:00:07.68 bitrate=7917.5kbits/s speed=0.0225x    frame=  463 fps=1.4 q=43.0 size=    7424kB time=00:00:07.70 bitrate=7896.9kbits/s speed=0.0225x    frame=  465 fps=1.3 q=43.0 size=    7424kB time=00:00:07.74 bitrate=7856.1kbits/s speed=0.0225x    frame=  467 fps=1.4 q=43.0 size=    7424kB time=00:00:07.78 bitrate=7815.7kbits/s speed=0.0225x    frame=  468 fps=1.3 q=43.0 size=    7424kB time=00:00:07.80 bitrate=7795.7kbits/s speed=0.0224x    frame=  469 fps=1.3 q=43.0 size=    7424kB time=00:00:07.82 bitrate=7775.7kbits/s speed=0.0224x    frame=  470 fps=1.3 q=43.0 size=    7424kB time=00:00:07.84 bitrate=7755.9kbits/s speed=0.0224x    frame=  473 fps=1.3 q=43.0 size=    7424kB time=00:00:07.90 bitrate=7697.0kbits/s speed=0.0224x    frame=  474 fps=1.3 q=43.0 size=    7424kB time=00:00:07.92 bitrate=7677.6kbits/s speed=0.0224x    frame=  475 fps=1.3 q=43.0 size=    7424kB time=00:00:07.94 bitrate=7658.2kbits/s speed=0.0224x    frame=  478 fps=1.3 q=43.0 size=    7424kB time=00:00:08.00 bitrate=7600.8kbits/s speed=0.0225x    frame=  479 fps=1.3 q=43.0 size=    7424kB time=00:00:08.02 bitrate=7581.9kbits/s speed=0.0224x    frame=  480 fps=1.3 q=43.0 size=    7424kB time=00:00:08.04 bitrate=7563.0kbits/s speed=0.0224x    frame=  482 fps=1.3 q=43.0 size=    7424kB time=00:00:08.08 bitrate=7525.6kbits/s speed=0.0224x    frame=  483 fps=1.3 q=43.0 size=    7424kB time=00:00:08.10 bitrate=7507.0kbits/s speed=0.0224x    frame=  484 fps=1.3 q=43.0 size=    7424kB time=00:00:08.12 bitrate=7488.5kbits/s speed=0.0224x    frame=  486 fps=1.3 q=43.0 size=    7424kB time=00:00:08.16 bitrate=7451.8kbits/s speed=0.0224x    frame=  487 fps=1.3 q=43.0 size=    7424kB time=00:00:08.18 bitrate=7433.6kbits/s speed=0.0224x    frame=  488 fps=1.3 q=43.0 size=    7424kB time=00:00:08.20 bitrate=7415.4kbits/s speed=0.0224x    frame=  490 fps=1.3 q=43.0 size=    7424kB time=00:00:08.24 bitrate=7379.4kbits/s speed=0.0224x    frame=  491 fps=1.3 q=43.0 size=    7424kB time=00:00:08.26 bitrate=7361.6kbits/s speed=0.0224x    frame=  492 fps=1.3 q=43.0 size=    7424kB time=00:00:08.28 bitrate=7343.8kbits/s speed=0.0224x    frame=  494 fps=1.3 q=43.0 size=    7424kB time=00:00:08.32 bitrate=7308.5kbits/s speed=0.0224x    frame=  495 fps=1.3 q=43.0 size=    7424kB time=00:00:08.34 bitrate=7291.0kbits/s speed=0.0224x    frame=  496 fps=1.3 q=43.0 size=    7424kB time=00:00:08.36 bitrate=7273.5kbits/s speed=0.0224x    frame=  498 fps=1.3 q=43.0 size=    7424kB time=00:00:08.40 bitrate=7238.9kbits/s speed=0.0223x    frame=  499 fps=1.3 q=43.0 size=    7424kB time=00:00:08.42 bitrate=7221.7kbits/s speed=0.0224x    frame=  500 fps=1.3 q=43.0 size=    7424kB time=00:00:08.44 bitrate=7204.6kbits/s speed=0.0224x    frame=  500 fps=1.1 q=-1.0 Lsize=   14559kB time=00:00:09.94 bitrate=11997.5kbits/s speed=0.0225x    
video:14554kB audio:0kB subtitle:0kB other streams:0kB global headers:0kB muxing overhead: 0.031019%
bench: utime=1714.984s
bench: maxrss=3310612kB
[libx264 @ 0x35be1c0] frame I:2     Avg QP:34.49  size:441994
[libx264 @ 0x35be1c0] frame P:114   Avg QP:44.20  size: 60840
[libx264 @ 0x35be1c0] frame B:384   Avg QP:46.22  size: 18446
[libx264 @ 0x35be1c0] consecutive B-frames:  0.4%  0.0%  1.2% 60.0% 30.0%  8.4%  0.0%  0.0%  0.0%
[libx264 @ 0x35be1c0] mb I  I16..4: 16.9% 75.2%  7.9%
[libx264 @ 0x35be1c0] mb P  I16..4:  1.5%  4.6%  0.0%  P16..4: 39.4%  4.5%  6.3%  0.0%  0.0%    skip:43.8%
[libx264 @ 0x35be1c0] mb B  I16..4:  0.0%  0.1%  0.0%  B16..8: 42.7%  1.9%  0.2%  direct: 0.3%  skip:54.9%  L0:45.0% L1:54.4% BI: 0.6%
[libx264 @ 0x35be1c0] final ratefactor: 35.08
[libx264 @ 0x35be1c0] 8x8 transform intra:75.3% inter:86.6%
[libx264 @ 0x35be1c0] direct mvs  spatial:99.2% temporal:0.8%
[libx264 @ 0x35be1c0] coded y,uvDC,uvAC intra: 36.7% 48.1% 16.8% inter: 2.1% 3.6% 0.1%
[libx264 @ 0x35be1c0] i16 v,h,dc,p: 33% 21%  8% 38%
[libx264 @ 0x35be1c0] i8 v,h,dc,ddl,ddr,vr,hd,vl,hu:  8%  4%  5% 12% 16% 16% 15% 13% 12%
[libx264 @ 0x35be1c0] i4 v,h,dc,ddl,ddr,vr,hd,vl,hu:  6%  4%  1% 12% 16% 15% 16% 13% 16%
[libx264 @ 0x35be1c0] i8c dc,h,v,p: 47% 18% 17% 17%
[libx264 @ 0x35be1c0] Weighted P-Frames: Y:1.8% UV:0.9%
[libx264 @ 0x35be1c0] ref P L0: 54.5%  6.1% 13.4%  4.2%  3.7%  3.2%  3.3%  1.7%  1.5%  1.2%  1.2%  1.1%  1.2%  1.3%  1.5%  0.9%
[libx264 @ 0x35be1c0] ref B L0: 93.6%  3.2%  1.2%  0.4%  0.3%  0.3%  0.2%  0.1%  0.1%  0.1%  0.1%  0.1%  0.1%  0.1%  0.1%
[libx264 @ 0x35be1c0] ref B L1: 98.9%  1.1%
[libx264 @ 0x35be1c0] kb/s:11922.42
